<svg width="20" height="20" viewBox="0 0 20 20" fill="none" xmlns="http://www.w3.org/2000/svg">
<path d="M15.8333 1.66663L11.6666 5.41663V14.5833L15.8333 10.8333V1.66663ZM5.41665 4.16663C3.79165 4.16663 2.04165 4.49996 0.833313 5.41663V17.6333C0.833313 17.8416 1.04165 18.05 1.24998 18.05C1.33331 18.05 1.37498 17.9916 1.45831 17.9916C2.58331 17.45 4.20831 17.0833 5.41665 17.0833C7.04165 17.0833 8.79165 17.4166 9.99998 18.3333C11.125 17.625 13.1666 17.0833 14.5833 17.0833C15.9583 17.0833 17.375 17.3416 18.5416 17.9666C18.625 18.0083 18.6666 17.9916 18.75 17.9916C18.9583 17.9916 19.1666 17.7833 19.1666 17.575V5.41663C18.6666 5.04163 18.125 4.79163 17.5 4.58329V15.8333C16.5833 15.5416 15.5833 15.4166 14.5833 15.4166C13.1666 15.4166 11.125 15.9583 9.99998 16.6666V5.41663C8.79165 4.49996 7.04165 4.16663 5.41665 4.16663Z" fill="#3E454E"/>
</svg>
