<svg width="20" height="20" viewBox="0 0 20 20" fill="none" xmlns="http://www.w3.org/2000/svg">
<path d="M17.1417 12.3833L18.3334 11.1916L17.1417 9.99996L14.1667 12.975L7.02502 5.83329L10 2.85829L8.80835 1.66663L7.61669 2.85829L6.42502 1.66663L4.64169 3.44996L3.45002 2.25829L2.25835 3.44996L3.45002 4.64163L1.66669 6.42496L2.85835 7.61663L1.66669 8.80829L2.85835 9.99996L5.83335 7.02496L12.975 14.1666L10 17.1416L11.1917 18.3333L12.3834 17.1416L13.575 18.3333L15.3584 16.55L16.55 17.7416L17.7417 16.55L16.55 15.3583L18.3334 13.575L17.1417 12.3833Z" fill="#3E454E"/>
</svg>
