<svg width="16" height="16" viewBox="0 0 16 16" fill="none" xmlns="http://www.w3.org/2000/svg">
<path d="M7.59998 7.38751C7.18557 7.38751 6.78815 7.22289 6.49512 6.92987C6.2021 6.63684 6.03748 6.23941 6.03748 5.82501C6.03748 5.41061 6.2021 5.01318 6.49512 4.72016C6.78815 4.42713 7.18557 4.26251 7.59998 4.26251C8.01438 4.26251 8.4118 4.42713 8.70483 4.72016C8.99786 5.01318 9.16248 5.41061 9.16248 5.82501C9.16248 6.0302 9.12206 6.23338 9.04354 6.42296C8.96501 6.61253 8.84992 6.78477 8.70483 6.92987C8.55974 7.07496 8.38749 7.19005 8.19792 7.26857C8.00835 7.3471 7.80517 7.38751 7.59998 7.38751ZM7.59998 1.45001C6.43965 1.45001 5.32685 1.91095 4.50638 2.73142C3.68591 3.55189 3.22498 4.66469 3.22498 5.82501C3.22498 9.10626 7.59998 13.95 7.59998 13.95C7.59998 13.95 11.975 9.10626 11.975 5.82501C11.975 4.66469 11.514 3.55189 10.6936 2.73142C9.8731 1.91095 8.7603 1.45001 7.59998 1.45001Z" fill="#F7B41F"/>
</svg>
