<svg width="20" height="20" viewBox="0 0 20 20" fill="none" xmlns="http://www.w3.org/2000/svg">
<path d="M14.1084 14.2666L13.4417 13.1333L14.6584 9.49163L15.8334 9.09996L16.6667 9.72496C16.6667 9.74996 16.6667 9.79163 16.6667 9.84163C16.6667 9.89996 16.6917 9.94996 16.6917 9.99996C16.6917 11.6416 16.1417 13.0916 15.05 14.3416L14.1084 14.2666ZM8.12502 12.5L6.98335 9.14163L10 7.02496L13.0167 9.14163L11.875 12.5H8.12502ZM10 16.6916C9.26669 16.6916 8.57502 16.575 7.91669 16.3416L7.34169 15.0833L7.89169 14.1666H12.15L12.6584 15.0833L12.0834 16.3416C11.425 16.575 10.7334 16.6916 10 16.6916ZM4.95002 14.3416C4.50835 13.825 4.12502 13.1333 3.80002 12.2916C3.47502 11.4416 3.30835 10.675 3.30835 9.99996C3.30835 9.94996 3.33335 9.89996 3.33335 9.84163C3.33335 9.79163 3.33335 9.74996 3.33335 9.72496L4.16669 9.09996L5.34169 9.49163L6.55835 13.1333L5.89169 14.2666L4.95002 14.3416ZM9.16669 4.40829V5.57496L5.83335 7.88329L4.71669 7.53329L4.36669 6.39996C4.73335 5.83329 5.27502 5.26663 5.99169 4.71663C6.70835 4.16663 7.39169 3.80829 8.04169 3.62496L9.16669 4.40829ZM11.9584 3.62496C12.6084 3.80829 13.2917 4.16663 14.0084 4.71663C14.725 5.26663 15.2667 5.83329 15.6334 6.39996L15.2834 7.53329L14.1667 7.89163L10.8334 5.58329V4.40829L11.9584 3.62496ZM4.10835 4.10829C2.50002 5.74163 1.66669 7.70829 1.66669 9.99996C1.66669 12.2916 2.50002 14.2583 4.10835 15.8916C5.71669 17.525 7.70835 18.3333 10 18.3333C12.2917 18.3333 14.2584 17.5 15.8917 15.8916C17.525 14.2833 18.3334 12.2916 18.3334 9.99996C18.3334 7.70829 17.5 5.74163 15.8917 4.10829C14.2834 2.47496 12.2917 1.66663 10 1.66663C7.70835 1.66663 5.74169 2.49996 4.10835 4.10829Z" fill="#3E454E"/>
</svg>
