<svg width="13" height="12" viewBox="0 0 13 12" fill="none" xmlns="http://www.w3.org/2000/svg">
<path d="M3.23748 5.46372C4.13748 7.23247 5.58748 8.68247 7.35623 9.58247L8.73123 8.20747C8.90623 8.03247 9.14998 7.98247 9.36873 8.05122C10.0687 8.28247 10.8187 8.40747 11.6 8.40747C11.7657 8.40747 11.9247 8.47332 12.0419 8.59053C12.1591 8.70774 12.225 8.86671 12.225 9.03247V11.22C12.225 11.3857 12.1591 11.5447 12.0419 11.6619C11.9247 11.7791 11.7657 11.845 11.6 11.845C8.78205 11.845 6.07954 10.7256 4.08697 8.73298C2.09439 6.74041 0.974976 4.0379 0.974976 1.21997C0.974976 1.05421 1.04082 0.895239 1.15803 0.778029C1.27524 0.660819 1.43422 0.594971 1.59998 0.594971H3.78748C3.95324 0.594971 4.11221 0.660819 4.22942 0.778029C4.34663 0.895239 4.41248 1.05421 4.41248 1.21997C4.41248 2.00122 4.53748 2.75122 4.76873 3.45122C4.83748 3.66997 4.78748 3.91372 4.61248 4.08872L3.23748 5.46372Z" fill="#F7B41F"/>
</svg>
